<svg width="98" height="31" viewBox="0 0 98 31" fill="none" xmlns="http://www.w3.org/2000/svg">
<g clip-path="url(#clip0_6_34)">
<path d="M97.8349 0H6.07098V26.2017H97.8349V0Z" fill="white"/>
<path d="M0 21.0141C0 20.5345 0 20.053 0.0174788 19.5383C0.159251 18.6849 0.512002 17.8757 1.04679 17.1769C1.99453 15.9963 3.3035 15.3451 4.73677 14.8746C5.11159 14.7529 5.49613 14.6606 5.90202 14.5592C6.01272 14.5481 6.09623 14.5315 6.21276 14.5149C7.71009 14.2374 9.23815 14.1395 10.7611 14.2234C12.2842 14.3108 13.7953 14.5338 15.2746 14.8894C17.2516 15.3801 19.1821 16.118 19.4501 16.4335C19.0307 16.4738 18.6138 16.5354 18.2013 16.618C17.3789 16.8031 16.5679 17.031 15.7717 17.3005C14.6745 17.6935 13.6607 18.2414 12.979 19.197C12.375 20.0419 12.4158 20.9532 13.3228 21.6303C14.088 22.204 15.0007 22.3885 15.9271 22.4438C17.0526 22.5356 18.1863 22.4679 19.2908 22.2428C19.7958 22.1302 20.3162 22.0841 20.8173 21.9605C21.4427 21.8092 22.0641 21.6284 22.6759 21.4274C23.5673 21.134 24.4626 20.8426 25.3327 20.505C26.5892 20.005 27.8147 19.4294 29.077 18.9406C30.2015 18.5033 31.357 18.1344 32.5048 17.747C33.2001 17.5127 33.9031 17.295 34.6081 17.0847C35.1791 16.9131 35.754 16.76 36.3308 16.6087C36.9076 16.4575 37.4513 16.3302 38.0126 16.1973C38.5739 16.0645 39.1779 15.9262 39.7605 15.7989C40.2072 15.7011 40.6597 15.6144 41.1102 15.5295C41.6094 15.4281 42.1046 15.3192 42.6057 15.2288C43.1883 15.1237 43.7884 15.0333 44.3807 14.9392C44.9731 14.8451 45.5848 14.7326 46.1908 14.6569C46.987 14.5573 47.7872 14.4891 48.5854 14.4024C49.5564 14.2991 50.5275 14.1588 51.4985 14.0887C52.9415 13.9854 54.3903 13.8674 55.8372 13.8637C58.7095 13.8637 61.5819 13.9282 64.4562 13.9688C64.5063 13.9724 64.5563 13.9785 64.6057 13.9873C65.3961 14.0537 66.1866 14.1183 66.977 14.1865C67.9383 14.2677 68.8997 14.347 69.8591 14.4337C70.1989 14.4651 70.5369 14.5094 70.8728 14.5592C71.5739 14.6625 72.2731 14.7713 72.9722 14.8783C73.3393 14.9337 73.7064 14.9835 74.0715 15.0462C74.6153 15.1384 75.1552 15.2307 75.697 15.3377C76.3554 15.4594 77.0176 15.5738 77.6721 15.7066C78.4198 15.8708 79.1617 16.0608 79.9055 16.2453C80.6824 16.4409 81.4767 16.6143 82.2477 16.8504C83.31 17.164 84.3723 17.4906 85.4133 17.865C86.6426 18.306 87.8681 18.7672 89.0605 19.2892C90.9117 20.0851 92.6634 21.0752 94.2828 22.2409C95.3445 22.9874 96.2939 23.8682 97.1047 24.8587C97.3183 25.1299 97.53 25.4029 97.7514 25.6981C97.7896 25.8104 97.8169 25.9259 97.833 26.043C97.7502 26.0687 97.6637 26.0823 97.5766 26.0836H88.6818C86.4834 26.0836 84.2849 26.0836 82.0787 26.0578C82.0178 26.0048 81.9529 25.9561 81.8845 25.9121C81.6903 25.8014 81.5175 25.6999 81.3465 25.5966C80.3855 25.01 79.3755 24.4991 78.3266 24.0691C77.7258 23.8231 77.1186 23.5962 76.5049 23.3884C75.9825 23.2039 75.4465 23.0711 74.9182 22.9087C74.5842 22.8073 74.2579 22.6892 73.9219 22.5951C73.5859 22.501 73.2441 22.4235 72.9043 22.3424C72.5256 22.252 72.1449 22.169 71.7662 22.0786C71.3409 21.9771 70.9194 21.859 70.4922 21.7705C70.03 21.6764 69.5619 21.6155 69.1017 21.5214C68.6414 21.4274 68.1306 21.2908 67.647 21.2004C66.9498 21.0713 66.2507 20.9625 65.5515 20.8536C65.0174 20.7706 64.4795 20.695 63.9434 20.623C63.3608 20.5437 62.7782 20.4625 62.182 20.3961C61.4343 20.3112 60.6846 20.2356 59.935 20.1637C59.4786 20.1194 59.0222 20.0825 58.5755 20.0474C58.0395 20.0069 57.5035 19.9626 56.9674 19.9368C56.0566 19.8906 55.1458 19.8279 54.233 19.8298C53.1124 19.8298 51.9899 19.8906 50.8673 19.9165C48.9078 19.9626 46.9482 19.9939 44.9906 20.0438C44.474 20.0567 43.9574 20.112 43.4369 20.1489L41.7667 20.2688C41.1374 20.3131 40.5101 20.3537 39.8809 20.3943H39.8207C39.3876 20.4662 38.9545 20.5492 38.5176 20.6046C38.0806 20.6599 37.6087 20.6913 37.1581 20.7337L37.0687 20.7448C36.6803 20.8149 36.2919 20.8924 35.9035 20.9495C35.5151 21.0067 35.1267 21.0344 34.7518 21.0824C34.4994 21.1156 34.2449 21.1525 33.9944 21.2041C33.7089 21.2632 33.4312 21.3554 33.1438 21.4052C32.8136 21.4642 32.4776 21.4864 32.1455 21.5344C31.9028 21.5712 31.662 21.6174 31.4231 21.6672C30.9162 21.7723 30.4132 21.8904 29.9063 21.99C29.4344 22.0804 28.9566 22.1376 28.4886 22.2372C27.871 22.37 27.2592 22.5324 26.6436 22.6744C26.1309 22.7943 25.6182 22.9032 25.1035 23.0176L24.5209 23.1375C24.2334 23.1984 23.9383 23.2537 23.6586 23.322C23.076 23.4529 22.4933 23.5895 21.9107 23.7223L21.2543 23.8772L20.0424 24.1669L18.7373 24.4787C18.3489 24.5672 17.976 24.6631 17.5934 24.7425C17.172 24.8329 16.7467 24.9048 16.3272 24.9989C15.9077 25.093 15.461 25.2221 15.024 25.3143C14.5871 25.4066 14.1171 25.473 13.6646 25.5542C13.4238 25.5984 13.1849 25.6446 12.9441 25.6925C12.6197 25.7571 12.2954 25.829 11.973 25.8936C11.6506 25.9582 11.336 26.0098 10.9903 26.0689C10.4504 26.1187 9.93575 26.1666 9.38614 26.222L8.69476 26.2939C7.83635 26.2423 7.00708 26.1962 6.17003 26.1316C5.24393 26.0531 4.34115 25.8123 3.50742 25.4213C1.82168 24.6539 0.687501 23.429 0.217515 21.6819C0.15731 21.4569 0.0737996 21.2373 0 21.0141Z" fill="#76CEDD"/>
<path d="M20.9863 11.4765C21.0581 11.7274 21.1261 11.9543 21.198 12.1941H19.1083C19.419 11.471 19.4268 10.7183 19.4307 9.96191C19.441 8.09498 19.441 6.22743 19.4307 4.35926C19.4307 3.66561 19.4151 2.96459 19.0966 2.27833C19.3452 2.27833 19.5627 2.27833 19.7783 2.27833C20.7959 2.24881 21.8136 2.18978 22.8313 2.19531C23.3514 2.19444 23.8692 2.26275 24.3694 2.39824C25.0957 2.60117 25.4706 3.13616 25.5483 3.84825C25.692 5.19311 24.9792 6.08415 23.8353 6.73905C23.612 6.86819 23.3712 6.9678 23.0915 7.10801C24.4956 8.79969 25.589 10.7183 27.302 12.1997C26.7193 12.1997 26.16 12.2107 25.5929 12.1997C25.288 12.1997 25.121 11.9672 24.9637 11.7551C24.3034 10.8757 23.645 9.99389 22.9886 9.10962L22.1845 8.0341C21.8719 7.61348 21.466 7.37366 20.8717 7.46221C20.8717 7.79796 20.8717 8.13925 20.8717 8.48238C20.9028 9.47673 20.9416 10.4711 20.9843 11.4894M22.4914 2.84283H20.9377C20.9066 4.19323 20.8756 5.50857 20.8445 6.87741C21.2465 6.87741 21.5883 6.8977 21.9262 6.87741C22.9245 6.80546 23.6469 6.30183 23.8683 5.46614C23.9623 5.08498 23.9944 4.69243 23.9635 4.30207C23.9188 3.43133 23.4372 2.96828 22.4933 2.82992L22.4914 2.84283Z" fill="black"/>
<path d="M15.5581 2.15473C15.9873 2.19347 16.3893 2.23406 16.8108 2.27464V4.04196C16.7736 4.02037 16.7385 3.99568 16.7059 3.96817C15.8397 3.10665 14.7638 2.79857 13.5325 2.81886C11.134 2.8576 9.8037 4.45151 9.55706 6.32398C9.42413 7.15019 9.47173 7.99356 9.69689 8.80154C10.1766 10.3844 11.5186 11.4156 13.282 11.5687C13.6628 11.6034 14.0454 11.617 14.4278 11.6093C14.7191 11.6093 15.0105 11.5503 15.3484 11.5134C15.4494 10.0652 15.6222 8.63182 15.1328 7.22055H17.1506C16.702 8.85504 16.8613 10.4766 16.9759 12.1314L16.1427 12.1867C15.1173 12.255 14.0918 12.3546 13.0664 12.3712C12.1559 12.3967 11.2512 12.2245 10.4213 11.8676C9.84367 11.6374 9.32906 11.2849 8.91674 10.837C8.50442 10.389 8.20531 9.85753 8.04223 9.28304C7.62926 7.99842 7.68191 6.61935 8.19177 5.36653C8.90063 3.67116 10.3281 2.75245 12.1342 2.32999C13.2575 2.09219 14.4145 2.03297 15.5581 2.15473Z" fill="black"/>
<path d="M78.278 11.6942C77.3245 10.294 76.3826 8.91407 75.4465 7.53047C75.3319 7.36075 75.2212 7.23899 74.9415 7.34599C75.027 8.94912 74.7959 10.5873 75.2678 12.1997H73.2014C73.5141 11.5411 73.5277 10.8271 73.5296 10.1243C73.5296 7.94124 73.5134 5.75823 73.4811 3.57522C73.4418 3.14712 73.3698 2.7223 73.2655 2.30415H75.3047C74.8716 3.32617 75.0134 4.40907 74.9571 5.46983C74.9357 5.89044 74.9571 6.3129 74.9571 6.76119C75.3011 6.73128 75.621 6.58066 75.8543 6.33873C76.3301 5.91074 76.7923 5.46983 77.2293 5.00678C77.7265 4.48102 78.2004 3.93496 78.6645 3.37783C79.0199 2.9443 79.0529 2.76166 79.0529 2.28571H81.1213C79.385 3.66562 77.9343 5.23738 76.4098 6.79993C77.8469 8.57831 79.0296 10.5209 80.6047 12.1978C80.0395 12.1978 79.4627 12.1978 78.8859 12.1978C78.5713 12.1757 78.4373 11.9285 78.278 11.6942Z" fill="black"/>
<path d="M66.4662 2.88158C66.4507 2.66942 66.4313 2.48125 66.4119 2.28571H68.354C69.5017 5.65062 70.5252 9.06165 72.3644 12.2089C71.8187 12.2089 71.2807 12.2089 70.7447 12.1997C70.6786 12.1997 70.5874 12.0742 70.5505 11.9912C70.0475 10.6998 69.5542 9.39003 69.057 8.0876C69.0376 8.0341 69.0123 7.9806 68.9793 7.90312H66.709C66.2643 7.90312 65.8215 7.90312 65.3767 7.90312C65.3319 7.90496 65.2881 7.91656 65.2487 7.93703C65.2093 7.9575 65.1753 7.98629 65.1495 8.02118C64.7281 9.07456 64.3008 10.1243 63.9221 11.1905C63.8133 11.4931 63.858 11.8455 63.8308 12.1904H61.8887C63.9978 9.35497 65.3631 6.18745 66.4604 2.8742M66.8081 4.28178C66.3672 5.28904 65.9283 6.2963 65.4797 7.32016H68.7501L67.2159 3.33724C67.0664 3.6896 66.944 3.96263 66.8081 4.28178Z" fill="black"/>
<path d="M38.8632 3.06237C38.8632 2.79672 38.8632 2.55505 38.8632 2.27649C39.4459 2.27649 40.0596 2.27649 40.6791 2.28756C40.749 2.28756 40.8461 2.42407 40.8733 2.51447C41.3336 3.84641 41.7686 5.18758 42.2444 6.51399C42.864 8.23888 43.5301 9.94901 44.4351 11.5632C44.5497 11.7717 44.6798 11.9709 44.8235 12.2089C44.2506 12.2089 43.7204 12.2089 43.1922 12.1997C43.1164 12.1997 43.0154 12.0668 42.9805 11.9783C42.4872 10.7072 42.0094 9.43246 41.5181 8.15771C41.487 8.07838 41.4559 8.0009 41.4229 7.91419H37.6048C37.1484 9.32916 36.1832 10.6039 36.2783 12.1997H34.3226C36.424 9.42139 37.7349 6.29631 38.8632 3.06237ZM39.9469 4.08624L39.6517 3.34832C39.0555 4.70978 38.4865 6.00852 37.9039 7.32201H41.1802C40.7704 6.23912 40.3645 5.18574 39.9469 4.08624Z" fill="black"/>
<path d="M89.952 3.47928C90.5734 2.58086 91.4823 2.18792 92.5446 2.12889C93.5157 2.07908 94.4731 2.12889 95.4578 2.12889V3.7394C94.6169 2.74505 93.5157 2.63252 92.3504 2.92215C91.0318 3.25237 90.6783 4.54004 91.6726 5.42554C92.1504 5.85169 92.7466 6.16346 93.2962 6.51029C93.8459 6.85711 94.3877 7.13014 94.881 7.50279C96.3395 8.60967 96.0987 10.4176 94.9121 11.4359C93.9624 12.2495 92.8321 12.5169 91.6105 12.3583C90.8977 12.2716 90.2064 12.0447 89.5033 11.886C89.3227 11.8454 89.2683 11.755 89.2742 11.5835C89.2858 11.1334 89.2742 10.6832 89.2742 10.1667C89.4159 10.3364 89.513 10.4582 89.614 10.5762C90.014 11.0298 90.5416 11.3659 91.1352 11.5452C91.7287 11.7245 92.3638 11.7397 92.9661 11.589C94.3255 11.1998 94.8305 9.5376 93.8225 8.58199C93.3545 8.13924 92.7447 7.82378 92.1737 7.48987C91.4512 7.06557 90.7327 6.64311 90.1869 6.01403C89.5169 5.23184 89.4373 4.37954 89.952 3.47928Z" fill="black"/>
<path d="M29.9646 7.3792H29.5412V11.6333C30.7531 11.6333 31.9008 11.7053 32.9981 11.3621C33.4293 11.2256 33.8118 10.9452 34.1983 10.7386L33.9439 12.1425C31.8678 12.3269 29.7937 12.1517 27.6904 12.2218C28.0205 11.4839 28.0264 10.733 28.0283 9.98959C28.0361 8.14479 28.0361 6.2963 28.0283 4.44412C28.0309 4.07983 28.0102 3.71573 27.9661 3.35385C27.9195 2.99964 27.8263 2.64913 27.7467 2.2691H33.3516C33.3943 2.7137 33.4351 3.14723 33.4856 3.673C33.1224 3.06606 32.565 2.94799 32.0018 2.92401C31.225 2.88711 30.4326 2.92401 29.6305 2.92401C29.4829 3.32433 29.38 5.80558 29.5004 6.68002L33.4331 6.57302C33.0092 6.98463 32.4414 7.23464 31.8367 7.27589C31.223 7.32754 30.6074 7.34599 29.9646 7.3792Z" fill="black"/>
<path d="M87.3709 6.64128C86.7883 7.14492 86.0755 7.28881 85.3414 7.32202C84.7297 7.34969 84.1179 7.32202 83.4518 7.32202C83.4867 8.78679 83.5197 10.187 83.5528 11.6259C83.8208 11.6259 84.0091 11.6259 84.1975 11.6259C84.9316 11.5909 85.6696 11.5798 86.3979 11.5023C87.0869 11.4392 87.7308 11.1487 88.2177 10.6814C88.1419 11.1334 88.074 11.5853 87.9827 12.0336C87.971 12.0853 87.8234 12.1351 87.7341 12.1443C87.3923 12.1775 87.0505 12.2126 86.7087 12.2144C85.0559 12.2144 83.4071 12.2144 81.7272 12.2144C82.1564 11.0559 82.0535 9.87522 82.069 8.7093C82.0884 7.18735 82.0515 5.66539 82.0321 4.14158C82.0321 3.51251 82.0088 2.88158 81.6981 2.25989H87.3748C87.4136 2.69711 87.4505 3.12325 87.4952 3.64164C87.3606 3.43123 87.1713 3.25724 86.9455 3.13641C86.7196 3.01558 86.4649 2.95197 86.2057 2.95169C85.355 2.8945 84.5005 2.86314 83.5625 2.81702C83.5236 4.11945 83.4867 5.35731 83.4479 6.67449L87.4292 6.56749C87.4114 6.59322 87.3919 6.61787 87.3709 6.64128Z" fill="black"/>
<path d="M48.5699 7.96217C48.6009 9.04322 48.6165 10.0966 48.6708 11.1481C48.7132 11.5004 48.782 11.8493 48.8767 12.1923H46.8045C47.1172 11.5761 47.1308 10.9009 47.1308 10.2553C47.1308 7.92896 47.1016 5.60267 47.0822 3.27638C47.0822 3.23764 47.0822 3.20074 47.0667 3.11588C45.9636 3.21181 44.8313 2.90373 43.7399 3.48484C43.8661 3.09374 43.9768 2.73032 44.1069 2.37796C44.1244 2.32815 44.2448 2.28387 44.3167 2.28387C46.987 2.28387 49.6574 2.28387 52.3667 2.28387C52.2903 2.44212 52.1798 2.58335 52.0423 2.6984C51.9048 2.81345 51.7433 2.89975 51.5684 2.95169C51.2994 3.02941 51.0203 3.07162 50.7392 3.07714C50.0575 3.09374 49.3797 3.07714 48.632 3.07714C48.6106 4.72085 48.5912 6.32767 48.5699 7.96217Z" fill="black"/>
<path d="M60.8711 12.148L55.5672 12.2476C55.9983 11.0227 55.9051 9.80141 55.9187 8.59307C55.9343 7.01392 55.9071 5.43108 55.8624 3.85193C55.8208 3.32945 55.7482 2.80962 55.6449 2.29492H57.6802C57.3015 3.14537 57.35 4.04564 57.3442 4.92745C57.3306 6.83313 57.3636 8.74065 57.3869 10.6463C57.3869 10.9692 57.4336 11.2902 57.4627 11.6444C58.8668 11.6056 60.304 11.8399 61.3993 10.615C61.2828 11.1168 61.1857 11.5558 61.073 11.9912C61.0594 12.0521 60.9585 12.0926 60.8711 12.148Z" fill="black"/>
<path d="M81.3368 26.0523C80.1716 26.0707 78.9966 26.0762 77.8158 26.0762H30.3238C30.2423 26.0762 30.1627 26.0762 30.0539 26.0762C30.1455 26.0438 30.2418 26.0246 30.3394 26.019H81.0475C81.1449 26.0202 81.2419 26.0314 81.3368 26.0523Z" fill="#90C856"/>
<path d="M5.95057 27.2274C5.94942 27.2115 5.95215 27.1956 5.95855 27.1809C5.96496 27.1661 5.97485 27.153 5.98747 27.1425C6.01129 27.1247 6.04068 27.115 6.07098 27.1149C6.10068 27.1151 6.12941 27.1249 6.15255 27.1425C6.16541 27.1529 6.1756 27.166 6.18233 27.1807C6.18906 27.1954 6.19216 27.2114 6.19139 27.2274V30.2547C6.19267 30.2703 6.18978 30.2859 6.18298 30.3001C6.17619 30.3143 6.16572 30.3266 6.15255 30.3359C6.12866 30.3518 6.10014 30.3602 6.07098 30.3599C6.04068 30.3597 6.01129 30.35 5.98747 30.3322C5.97523 30.323 5.96549 30.3112 5.95906 30.2977C5.95264 30.2843 5.94973 30.2695 5.95057 30.2547V27.2274Z" fill="black"/>
<path d="M9.39583 30.2399C9.39681 30.2542 9.39454 30.2685 9.38918 30.2819C9.38382 30.2953 9.37549 30.3074 9.36475 30.3174C9.34436 30.3352 9.31847 30.3462 9.29095 30.3488C9.26143 30.3504 9.23196 30.3447 9.2055 30.3322C9.17571 30.3187 9.15171 30.2959 9.13753 30.2676L7.78971 27.7365V30.2399C7.79102 30.2556 7.78835 30.2713 7.78193 30.2857C7.77551 30.3002 7.76552 30.3129 7.75281 30.323C7.72834 30.3409 7.69829 30.3506 7.66736 30.3506C7.63644 30.3506 7.60639 30.3409 7.58191 30.323C7.56897 30.313 7.5587 30.3003 7.55195 30.2859C7.54519 30.2715 7.54215 30.2557 7.54307 30.2399V27.2274C7.54254 27.2141 7.54485 27.2009 7.54985 27.1886C7.55486 27.1762 7.56246 27.1649 7.5722 27.1554C7.59009 27.1369 7.61402 27.1245 7.64017 27.1204C7.66442 27.1148 7.68972 27.1148 7.71397 27.1204C7.73609 27.1274 7.75475 27.1418 7.76641 27.161L9.14335 29.7437V27.2274C9.14212 27.2113 9.14501 27.1952 9.15177 27.1804C9.15854 27.1656 9.16898 27.1526 9.18219 27.1425C9.20718 27.1245 9.23833 27.1159 9.26959 27.1185C9.30123 27.1196 9.33176 27.1299 9.35698 27.1481C9.36974 27.1573 9.37994 27.1693 9.3867 27.1832C9.39347 27.197 9.3966 27.2122 9.39583 27.2274V30.2399Z" fill="black"/>
<path d="M10.6815 29.9042C10.673 29.8902 10.6685 29.8743 10.6685 29.8581C10.6685 29.8419 10.673 29.826 10.6815 29.812C10.6951 29.7843 10.7185 29.7621 10.7476 29.7492C10.7746 29.7363 10.8054 29.7324 10.835 29.7382C10.852 29.7425 10.8678 29.7506 10.881 29.7619C10.8941 29.7731 10.9043 29.7871 10.9107 29.8027C10.9366 29.8434 10.9673 29.8811 11.002 29.9153C11.0488 29.9599 11.1017 29.9984 11.1593 30.0296C11.2267 30.0668 11.2984 30.0965 11.3729 30.1182C11.4615 30.1446 11.554 30.1571 11.6468 30.1551C11.7028 30.1537 11.7583 30.145 11.8118 30.1293C11.9435 30.0955 12.0612 30.0244 12.1493 29.9256C12.2374 29.8267 12.2917 29.7047 12.3051 29.5758C12.3153 29.5014 12.3085 29.4258 12.285 29.3542C12.2615 29.2825 12.222 29.2165 12.1692 29.1607C12.0118 29.0029 11.8221 28.8774 11.6118 28.7918C11.4506 28.7198 11.305 28.6534 11.1768 28.5889C11.0598 28.5346 10.9503 28.4671 10.8505 28.3878C10.7668 28.3241 10.6974 28.245 10.6466 28.1553C10.5977 28.0627 10.5736 27.96 10.5767 27.8565C10.5736 27.738 10.6016 27.6207 10.6582 27.5152C10.7125 27.4239 10.7867 27.3447 10.8758 27.2827C10.9702 27.218 11.0761 27.1698 11.1884 27.1407C11.3066 27.1089 11.4288 27.0928 11.5516 27.0927C11.6545 27.091 11.757 27.106 11.8546 27.137C11.9355 27.1645 12.013 27.2003 12.0857 27.244C12.1451 27.2809 12.1993 27.3249 12.2469 27.375C12.2827 27.4135 12.3158 27.4541 12.3459 27.4967C12.3569 27.5087 12.3646 27.523 12.3683 27.5385C12.3721 27.5539 12.3717 27.57 12.3673 27.5853C12.3587 27.6132 12.341 27.6377 12.3168 27.6554C12.2924 27.6695 12.2636 27.6754 12.2352 27.672C12.2167 27.6702 12.1989 27.6645 12.1831 27.6553C12.1673 27.646 12.1539 27.6334 12.1439 27.6185L12.0585 27.5263C12.022 27.4891 11.981 27.4562 11.9361 27.4285C11.8838 27.397 11.8278 27.3716 11.7691 27.3528C11.7001 27.3321 11.6279 27.3221 11.5555 27.3233C11.4665 27.323 11.3778 27.3329 11.2914 27.3528C11.2088 27.3721 11.1305 27.4052 11.0603 27.4506C10.9921 27.4946 10.9345 27.5518 10.8913 27.6185C10.847 27.6919 10.8248 27.7755 10.8272 27.8602C10.8248 27.9362 10.8443 28.0115 10.8835 28.0778C10.9268 28.1451 10.9851 28.2024 11.0544 28.2457C11.1436 28.3062 11.2385 28.3587 11.338 28.4025C11.4526 28.456 11.5866 28.5151 11.738 28.587C11.8487 28.6368 11.9556 28.6903 12.0624 28.7494C12.164 28.8093 12.2573 28.8812 12.3401 28.9634C12.4205 29.0425 12.4827 29.1368 12.5227 29.2401C12.5639 29.3589 12.5765 29.485 12.5596 29.609C12.5467 29.7224 12.5118 29.8325 12.4566 29.9337C12.4089 30.0265 12.343 30.1098 12.2624 30.1791C12.182 30.2477 12.0883 30.3009 11.9866 30.3359C11.8808 30.3748 11.7681 30.3942 11.6545 30.3931C11.5601 30.3929 11.4661 30.3811 11.3749 30.358C11.2797 30.3361 11.1872 30.3046 11.0991 30.2639C11.0124 30.2244 10.932 30.1735 10.8602 30.1127C10.7867 30.0551 10.726 29.9843 10.6815 29.9042Z" fill="black"/>
<path d="M15.3542 27.1185C15.3699 27.1179 15.3856 27.121 15.3998 27.1274C15.414 27.1339 15.4264 27.1435 15.4358 27.1554C15.4554 27.1798 15.4656 27.2097 15.4649 27.2403C15.4658 27.2698 15.457 27.2988 15.4397 27.3233C15.4299 27.3358 15.4169 27.3458 15.4019 27.3522C15.387 27.3587 15.3706 27.3614 15.3542 27.3602H14.6123V30.2436C14.6136 30.2593 14.611 30.275 14.6046 30.2894C14.5981 30.3039 14.5881 30.3166 14.5754 30.3266C14.5496 30.3447 14.5182 30.3544 14.4861 30.3543C14.4545 30.3547 14.4237 30.345 14.3987 30.3266C14.3854 30.317 14.3748 30.3044 14.368 30.2899C14.3612 30.2754 14.3584 30.2595 14.3599 30.2436V27.3565H13.583C13.5673 27.3571 13.5517 27.3541 13.5374 27.3476C13.5232 27.3412 13.5109 27.3316 13.5015 27.3196C13.4822 27.2959 13.4719 27.2666 13.4723 27.2366C13.4716 27.206 13.4819 27.1761 13.5015 27.1517C13.5109 27.1398 13.5232 27.1302 13.5374 27.1237C13.5517 27.1173 13.5673 27.1143 13.583 27.1148L15.3542 27.1185Z" fill="black"/>
<path d="M16.5952 27.2274C16.594 27.2115 16.5967 27.1956 16.6031 27.1809C16.6095 27.1661 16.6194 27.153 16.6321 27.1425C16.6559 27.1247 16.6853 27.115 16.7156 27.1149C16.7453 27.1151 16.774 27.1249 16.7971 27.1425C16.81 27.1529 16.8202 27.166 16.8269 27.1807C16.8337 27.1954 16.8368 27.2114 16.836 27.2274V30.2547C16.8373 30.2703 16.8344 30.2859 16.8276 30.3001C16.8208 30.3143 16.8103 30.3266 16.7971 30.3359C16.7733 30.3518 16.7447 30.3602 16.7156 30.3599C16.6853 30.3597 16.6559 30.35 16.6321 30.3322C16.6198 30.323 16.6101 30.3112 16.6037 30.2977C16.5972 30.2843 16.5943 30.2695 16.5952 30.2547V27.2274Z" fill="black"/>
<path d="M19.788 27.1185C19.8037 27.1179 19.8194 27.121 19.8336 27.1274C19.8478 27.1339 19.8601 27.1435 19.8696 27.1554C19.8898 27.1795 19.9008 27.2095 19.9006 27.2403C19.9009 27.27 19.8914 27.299 19.8734 27.3233C19.8636 27.3358 19.8507 27.3458 19.8357 27.3522C19.8208 27.3587 19.8044 27.3614 19.788 27.3602H19.0461V30.2436C19.0474 30.2593 19.0448 30.275 19.0383 30.2894C19.0319 30.3039 19.0219 30.3166 19.0092 30.3266C18.9835 30.345 18.9521 30.3547 18.9199 30.3543C18.8883 30.3547 18.8575 30.345 18.8325 30.3266C18.8195 30.3167 18.8093 30.304 18.8025 30.2896C18.7958 30.2752 18.7927 30.2594 18.7936 30.2436V27.3565H18.0168C18.0011 27.3571 17.9854 27.3541 17.9712 27.3476C17.957 27.3412 17.9447 27.3316 17.9352 27.3196C17.9159 27.2959 17.9057 27.2666 17.9061 27.2366C17.9054 27.206 17.9157 27.1761 17.9352 27.1517C17.9447 27.1398 17.957 27.1302 17.9712 27.1237C17.9854 27.1173 18.0011 27.1143 18.0168 27.1148L19.788 27.1185Z" fill="black"/>
<path d="M20.9999 27.2274C20.9987 27.2115 21.0015 27.1956 21.0079 27.1808C21.0143 27.1661 21.0242 27.153 21.0368 27.1425C21.0613 27.1247 21.0913 27.115 21.1222 27.1149C21.1532 27.1147 21.1833 27.1245 21.2077 27.1425C21.2206 27.1529 21.2307 27.166 21.2375 27.1807C21.2442 27.1954 21.2473 27.2114 21.2465 27.2274V29.4282C21.2405 29.5246 21.2563 29.621 21.2928 29.7111C21.3293 29.8011 21.3857 29.8827 21.4582 29.9503C21.6088 30.0768 21.8051 30.1429 22.0059 30.1348H22.1516C22.2534 30.1389 22.355 30.1231 22.4502 30.0886C22.5454 30.054 22.6321 30.0013 22.7051 29.9337C22.775 29.867 22.8299 29.7875 22.8663 29.6999C22.9027 29.6124 22.9199 29.5186 22.9167 29.4245V27.2274C22.9155 27.2113 22.9184 27.1952 22.9252 27.1804C22.9319 27.1656 22.9424 27.1526 22.9556 27.1425C22.9798 27.1242 23.01 27.1144 23.041 27.1149C23.0714 27.1147 23.1009 27.1245 23.1245 27.1425C23.1378 27.1526 23.1482 27.1656 23.155 27.1804C23.1617 27.1952 23.1646 27.2113 23.1634 27.2274V29.4282C23.1644 29.5546 23.1393 29.68 23.0896 29.7972C23.0433 29.9106 22.9731 30.0137 22.8832 30.1003C22.7934 30.1869 22.6858 30.2552 22.5672 30.3008C22.435 30.3509 22.2938 30.3759 22.1516 30.3746H22.0059C21.8636 30.3759 21.7224 30.3509 21.5903 30.3008C21.4713 30.256 21.3635 30.1882 21.2737 30.1016C21.1836 30.0173 21.1139 29.9153 21.0698 29.8027C21.0221 29.6812 20.9984 29.5524 20.9999 29.4227V27.2274Z" fill="black"/>
<path d="M26.0745 27.1185C26.0903 27.118 26.1059 27.121 26.1201 27.1274C26.1343 27.1339 26.1467 27.1435 26.1561 27.1554C26.1771 27.1791 26.1882 27.2093 26.1872 27.2403C26.1875 27.27 26.178 27.299 26.16 27.3233C26.1502 27.3358 26.1372 27.3458 26.1223 27.3522C26.1073 27.3587 26.0909 27.3614 26.0745 27.3602H25.3327V30.2436C25.334 30.2593 25.3313 30.275 25.3249 30.2894C25.3185 30.3039 25.3085 30.3166 25.2958 30.3267C25.2702 30.3453 25.2386 30.355 25.2064 30.3543C25.1748 30.3547 25.144 30.345 25.119 30.3267C25.1061 30.3167 25.0958 30.304 25.0891 30.2896C25.0823 30.2752 25.0793 30.2594 25.0802 30.2436V27.3565H24.3034C24.2873 27.3573 24.2714 27.3543 24.2568 27.3479C24.2423 27.3414 24.2296 27.3317 24.2198 27.3196C24.2005 27.2959 24.1903 27.2666 24.1907 27.2366C24.19 27.206 24.2003 27.1761 24.2198 27.1518C24.2296 27.1396 24.2423 27.1299 24.2568 27.1235C24.2714 27.1171 24.2873 27.1141 24.3034 27.1149L26.0745 27.1185Z" fill="black"/>
<path d="M27.3039 27.244C27.3032 27.2258 27.3069 27.2078 27.3146 27.1911C27.3224 27.1745 27.334 27.1598 27.3486 27.1481C27.3739 27.1271 27.4063 27.1153 27.4399 27.1149H28.7993C28.8171 27.1137 28.8349 27.1164 28.8514 27.1228C28.8679 27.1292 28.8827 27.1391 28.8945 27.1518C28.9141 27.1761 28.9243 27.206 28.9236 27.2366C28.9236 27.2672 28.9119 27.2967 28.8906 27.3196C28.8793 27.3319 28.8652 27.3416 28.8494 27.3479C28.8336 27.3543 28.8165 27.3573 28.7993 27.3565H27.5642V28.5759H28.5488C28.5672 28.5751 28.5855 28.5783 28.6024 28.5853C28.6193 28.5924 28.6342 28.6031 28.6459 28.6165C28.6666 28.6398 28.6783 28.6691 28.6789 28.6995C28.6785 28.7313 28.6653 28.7617 28.642 28.7844C28.6306 28.7971 28.6162 28.8072 28.6001 28.8139C28.5839 28.8207 28.5664 28.8238 28.5488 28.8231H27.5544V30.1145H28.7896C28.8065 30.1138 28.8233 30.1167 28.8388 30.1231C28.8543 30.1295 28.868 30.1392 28.879 30.1514C28.8983 30.1744 28.9086 30.2031 28.9081 30.2326C28.9082 30.262 28.898 30.2906 28.879 30.3137C28.8679 30.3257 28.8541 30.3351 28.8386 30.3412C28.8231 30.3473 28.8063 30.3499 28.7896 30.3488H27.4302C27.398 30.3491 27.3663 30.3408 27.3389 30.3248C27.3226 30.3128 27.3099 30.2969 27.3021 30.2788C27.2943 30.2607 27.2915 30.2409 27.2942 30.2215L27.3039 27.244Z" fill="black"/>
<path d="M32.0329 28.0409C32.0225 27.9114 32.0392 27.7812 32.0818 27.6577C32.1245 27.5343 32.1923 27.42 32.2815 27.3215C32.3825 27.2347 32.5011 27.1684 32.63 27.1265C32.7588 27.0846 32.8953 27.0681 33.0311 27.078H33.1846C33.32 27.0685 33.4561 27.0852 33.5846 27.127C33.7131 27.1689 33.8314 27.235 33.9323 27.3215C34.1122 27.5206 34.2016 27.7793 34.1809 28.0409V29.4301C34.19 29.5572 34.1704 29.6847 34.1234 29.804C34.0764 29.9233 34.0031 30.0317 33.9084 30.1218C33.8136 30.212 33.6997 30.2819 33.5742 30.3267C33.4487 30.3716 33.3145 30.3904 33.1807 30.382H33.0272C32.8861 30.3832 32.746 30.3601 32.6136 30.3137C32.4946 30.2727 32.387 30.2065 32.299 30.12C32.2127 30.0339 32.1465 29.9314 32.1048 29.8193C32.0571 29.6946 32.0334 29.5628 32.0348 29.4301L32.0329 28.0409ZM33.1846 30.1403C33.2853 30.1461 33.3862 30.1318 33.4808 30.0985C33.5755 30.0651 33.6618 30.0134 33.7342 29.9466C33.8012 29.8772 33.8528 29.7957 33.8862 29.707C33.9195 29.6183 33.9339 29.5241 33.9284 29.4301V28.0409C33.9284 27.5558 33.6779 27.3141 33.1807 27.3141H33.0272C32.9237 27.3017 32.8186 27.3121 32.72 27.3443C32.6213 27.3764 32.5317 27.4297 32.4581 27.4998C32.3844 27.57 32.3286 27.6552 32.295 27.749C32.2613 27.8428 32.2507 27.9427 32.264 28.0409V29.4301C32.2575 29.5265 32.2725 29.6232 32.308 29.7138C32.3434 29.8044 32.3986 29.8869 32.4699 29.9558C32.6229 30.0846 32.8231 30.1509 33.0272 30.1403H33.1846Z" fill="black"/>
<path d="M35.4781 27.2274C35.4764 27.2108 35.4793 27.1941 35.4864 27.1789C35.4936 27.1637 35.5048 27.1505 35.5189 27.1407C35.5436 27.1247 35.5726 27.1158 35.6024 27.1149H36.9619C36.9797 27.1135 36.9976 27.1162 37.0141 27.1226C37.0306 27.129 37.0453 27.139 37.0571 27.1518C37.0766 27.1761 37.0869 27.206 37.0862 27.2366C37.0862 27.2672 37.0745 27.2967 37.0532 27.3196C37.0418 27.3319 37.0278 27.3416 37.012 27.348C36.9962 27.3543 36.9791 27.3573 36.9619 27.3565H35.7345V28.5759H36.7289C36.7472 28.5751 36.7656 28.5783 36.7825 28.5853C36.7993 28.5924 36.8142 28.6031 36.826 28.6165C36.8467 28.6398 36.8583 28.6691 36.859 28.6995C36.8583 28.7305 36.8467 28.7604 36.826 28.7844C36.8141 28.7976 36.7991 28.8081 36.7823 28.8148C36.7654 28.8215 36.7471 28.8244 36.7289 28.8231H35.7345V30.2399C35.7358 30.2556 35.7331 30.2713 35.7267 30.2857C35.7203 30.3002 35.7103 30.313 35.6976 30.323C35.6731 30.3408 35.643 30.3505 35.6121 30.3506C35.5812 30.3508 35.5511 30.341 35.5267 30.323C35.5138 30.313 35.5035 30.3003 35.4967 30.2859C35.49 30.2715 35.4869 30.2557 35.4879 30.2399L35.4781 27.2274Z" fill="black"/>
<path d="M42.6115 27.3565L41.5414 30.24C41.537 30.259 41.5263 30.2762 41.511 30.2891C41.4956 30.3021 41.4764 30.31 41.456 30.3119C41.4152 30.3119 41.3841 30.2916 41.3647 30.24L40.3237 27.3565V30.24C40.325 30.2556 40.3224 30.2713 40.3159 30.2857C40.3095 30.3002 40.2995 30.313 40.2868 30.323C40.2613 30.3416 40.2296 30.3508 40.1975 30.3488C40.1656 30.3471 40.1351 30.3362 40.1101 30.3174C40.0975 30.3085 40.0874 30.2968 40.0806 30.2833C40.0738 30.2698 40.0706 30.2549 40.0712 30.24V27.2329C40.0707 27.2014 40.0832 27.1709 40.1062 27.1481C40.1192 27.1374 40.1343 27.1293 40.1507 27.1243C40.167 27.1192 40.1842 27.1173 40.2014 27.1186H40.3956C40.4157 27.1172 40.436 27.1202 40.4548 27.1272C40.4736 27.1342 40.4905 27.1451 40.5043 27.1591C40.529 27.1846 40.5476 27.2148 40.5587 27.2477L41.454 29.7456L42.3707 27.2311C42.3819 27.2026 42.3976 27.1758 42.4173 27.1518C42.4296 27.1399 42.4445 27.1307 42.4609 27.125C42.4774 27.1193 42.495 27.1171 42.5125 27.1186H42.7474C42.778 27.1199 42.807 27.1317 42.829 27.1518C42.8416 27.1614 42.852 27.1734 42.8593 27.1871C42.8667 27.2008 42.8709 27.2158 42.8717 27.2311V30.2436C42.8727 30.2594 42.8696 30.2752 42.8629 30.2896C42.8561 30.304 42.8458 30.3167 42.8329 30.3267C42.8073 30.3453 42.7758 30.355 42.7436 30.3543C42.712 30.3548 42.6812 30.345 42.6562 30.3267C42.6432 30.3167 42.633 30.304 42.6262 30.2896C42.6195 30.2752 42.6164 30.2594 42.6173 30.2436L42.6115 27.3565Z" fill="black"/>
<path d="M45.7052 29.4891H44.505L44.2797 30.2399C44.2694 30.2779 44.2445 30.3108 44.2098 30.3322C44.1963 30.34 44.1812 30.3452 44.1656 30.3474C44.1499 30.3496 44.1339 30.3488 44.1185 30.3451C44.0892 30.3381 44.0632 30.3218 44.0447 30.299C44.0348 30.2843 44.0286 30.2677 44.0266 30.2505C44.0246 30.2332 44.0268 30.2157 44.0331 30.1993L44.9459 27.2274C44.9553 27.1934 44.9765 27.1635 45.0061 27.1425C45.0342 27.1245 45.0673 27.1149 45.1012 27.1148C45.134 27.1147 45.1659 27.1244 45.1925 27.1425C45.2209 27.1643 45.2413 27.194 45.2508 27.2274L46.1849 30.1938C46.1991 30.2263 46.1991 30.2628 46.1849 30.2953C46.1782 30.3075 46.1688 30.3182 46.1574 30.3268C46.1461 30.3353 46.1329 30.3416 46.1189 30.3451C46.0887 30.3525 46.0567 30.3485 46.0296 30.334C45.9958 30.3139 45.9715 30.2822 45.9616 30.2455L45.7052 29.4891ZM44.5827 29.2493H45.6392L45.1032 27.5687L44.5827 29.2493Z" fill="black"/>
<path d="M49.2107 30.2399C49.2114 30.2544 49.2089 30.2687 49.2032 30.2821C49.1975 30.2955 49.1888 30.3075 49.1777 30.3174C49.1578 30.3359 49.1316 30.347 49.1039 30.3488C49.075 30.3502 49.0462 30.3445 49.0204 30.3322C48.9902 30.3192 48.966 30.2963 48.9524 30.2676L47.6046 27.7365V30.2399C47.6059 30.2556 47.6032 30.2713 47.5968 30.2857C47.5904 30.3002 47.5804 30.3129 47.5677 30.323C47.5431 30.3408 47.5131 30.3505 47.4822 30.3506C47.4512 30.3511 47.421 30.3413 47.3968 30.323C47.3839 30.313 47.3736 30.3003 47.3668 30.2859C47.3601 30.2715 47.357 30.2557 47.3579 30.2399V27.2274C47.3574 27.2141 47.3597 27.2009 47.3647 27.1886C47.3697 27.1762 47.3773 27.1649 47.3871 27.1554C47.4047 27.1365 47.4288 27.1241 47.4551 27.1204C47.4793 27.1148 47.5046 27.1148 47.5289 27.1204C47.551 27.1274 47.5696 27.1418 47.5813 27.161L48.9582 29.7437V27.2274C48.9571 27.2115 48.9598 27.1956 48.9662 27.1808C48.9726 27.1661 48.9825 27.153 48.9951 27.1425C49.021 27.1247 49.0526 27.1162 49.0845 27.1185C49.1161 27.1196 49.1466 27.1299 49.1719 27.1481C49.1843 27.1576 49.1942 27.1697 49.2009 27.1834C49.2077 27.1972 49.211 27.2122 49.2107 27.2274V30.2399Z" fill="black"/>
<path d="M52.0694 29.4891H50.8692L50.6342 30.2399C50.624 30.2785 50.5982 30.3116 50.5624 30.3322C50.5489 30.34 50.5338 30.3452 50.5181 30.3474C50.5024 30.3496 50.4865 30.3488 50.4711 30.3451C50.4423 30.338 50.4169 30.3217 50.3993 30.299C50.3889 30.2845 50.3824 30.2679 50.3804 30.2505C50.3784 30.2332 50.3808 30.2156 50.3876 30.1993L51.2984 27.2274C51.3075 27.1949 51.3277 27.1662 51.3558 27.1458C51.384 27.1254 51.4184 27.1145 51.4538 27.1148C51.4865 27.1147 51.5185 27.1244 51.5451 27.1425C51.5734 27.1643 51.5938 27.194 51.6033 27.2274L52.5394 30.1938C52.5536 30.2263 52.5536 30.2628 52.5394 30.2953C52.5323 30.3075 52.5225 30.3183 52.5108 30.3268C52.4992 30.3354 52.4858 30.3416 52.4715 30.3451C52.4419 30.3524 52.4106 30.3484 52.3841 30.334C52.3671 30.3243 52.3523 30.3115 52.3406 30.2963C52.3289 30.2811 52.3206 30.2638 52.3161 30.2455L52.0694 29.4891ZM50.945 29.2493H51.9918L51.4655 27.5687L50.945 29.2493Z" fill="black"/>
<path d="M53.6504 28.0834C53.6457 27.9226 53.6727 27.7624 53.73 27.6111C53.7754 27.495 53.8517 27.3921 53.9514 27.3122C54.0492 27.2344 54.165 27.1794 54.2893 27.1518C54.4323 27.1187 54.5791 27.1026 54.7263 27.1038C54.8574 27.1035 54.988 27.1197 55.1147 27.1518C55.2328 27.1816 55.345 27.2296 55.4468 27.2938C55.5433 27.3565 55.6236 27.4391 55.6818 27.5355C55.742 27.6399 55.7722 27.7577 55.7692 27.8768C55.7707 27.8935 55.7681 27.9103 55.7617 27.926C55.7553 27.9417 55.7452 27.9557 55.7323 27.9672C55.7065 27.9855 55.6751 27.9952 55.6429 27.9948C55.6114 27.9952 55.5806 27.9855 55.5555 27.9672C55.5422 27.9559 55.5318 27.9419 55.5251 27.9262C55.5183 27.9106 55.5155 27.8936 55.5167 27.8768C55.5176 27.7987 55.4954 27.722 55.4526 27.6554C55.4076 27.5889 55.3496 27.5313 55.2817 27.4857C55.2063 27.4336 55.1213 27.3955 55.0312 27.3731C54.9326 27.3469 54.8306 27.3338 54.7282 27.3344C54.4994 27.3157 54.2718 27.3818 54.0932 27.5189C54.0225 27.5968 53.9689 27.6874 53.9355 27.7853C53.9022 27.8832 53.8897 27.9864 53.8989 28.0889V29.4393C53.886 29.5417 53.8994 29.6455 53.938 29.7419C53.9766 29.8383 54.0391 29.9243 54.1203 29.9927C54.3011 30.1028 54.5139 30.1558 54.7282 30.144C54.8459 30.1564 54.9651 30.1443 55.0774 30.1087C55.1898 30.073 55.2926 30.0145 55.3788 29.9374C55.5158 29.7595 55.5813 29.541 55.5633 29.3212V29.0187H54.9613C54.9446 29.02 54.9279 29.0174 54.9126 29.0109C54.8973 29.0045 54.884 28.9945 54.8739 28.9818C54.8546 28.958 54.8443 28.9288 54.8447 28.8988C54.8443 28.8682 54.8546 28.8384 54.8739 28.8139C54.8844 28.8018 54.8979 28.7924 54.9131 28.7863C54.9283 28.7802 54.9448 28.7776 54.9613 28.7789H55.6973C55.7135 28.7782 55.7296 28.7815 55.7439 28.7887C55.7582 28.7958 55.7703 28.8064 55.7789 28.8195C55.797 28.8432 55.8078 28.8713 55.81 28.9006V29.3212C55.81 29.6902 55.7245 29.9669 55.5555 30.1311C55.3866 30.2953 55.1108 30.3728 54.7263 30.3728C54.4378 30.3953 54.15 30.3216 53.9125 30.1643C53.7377 30.0241 53.6504 29.7824 53.6504 29.4393V28.0834Z" fill="black"/>
<path d="M57.0685 27.244C57.0675 27.226 57.0709 27.208 57.0783 27.1914C57.0857 27.1748 57.0969 27.16 57.1112 27.1481C57.1367 27.1273 57.1689 27.1156 57.2025 27.1149H58.5619C58.5794 27.1135 58.597 27.1162 58.6132 27.1226C58.6294 27.129 58.6438 27.139 58.6551 27.1518C58.6747 27.1761 58.685 27.206 58.6843 27.2366C58.685 27.267 58.6739 27.2965 58.6532 27.3196C58.6419 27.3319 58.6278 27.3416 58.612 27.348C58.5962 27.3543 58.5791 27.3573 58.5619 27.3565H57.3267V28.5759H58.3211C58.3395 28.5752 58.3578 28.5785 58.3746 28.5855C58.3914 28.5926 58.4064 28.6032 58.4182 28.6165C58.4396 28.6397 58.4515 28.6696 58.4515 28.7005C58.4515 28.7314 58.4396 28.7612 58.4182 28.7844C58.4068 28.7971 58.3924 28.8072 58.3763 28.8139C58.3601 28.8207 58.3426 28.8238 58.325 28.8231H57.3306V30.1145H58.5658C58.5824 30.1136 58.599 30.1165 58.6142 30.1229C58.6294 30.1294 58.6428 30.1391 58.6532 30.1514C58.6725 30.1744 58.6828 30.2031 58.6823 30.2326C58.6825 30.262 58.6722 30.2906 58.6532 30.3137C58.6427 30.3258 58.6292 30.3353 58.614 30.3414C58.5988 30.3475 58.5823 30.35 58.5658 30.3488H57.2063C57.1742 30.3489 57.1426 30.3406 57.1151 30.3248C57.099 30.3127 57.0866 30.2967 57.0791 30.2786C57.0716 30.2605 57.0692 30.2408 57.0723 30.2215L57.0685 27.244Z" fill="black"/>
<path d="M62.4422 27.3565L61.3701 30.2399C61.366 30.2591 61.3554 30.2765 61.34 30.2894C61.3246 30.3024 61.3052 30.3103 61.2847 30.3119C61.2439 30.3119 61.2128 30.2916 61.1934 30.2399L60.1525 27.3565V30.2399C60.1538 30.2556 60.1511 30.2713 60.1447 30.2857C60.1382 30.3002 60.1283 30.3129 60.1156 30.323C60.0901 30.3416 60.0583 30.3508 60.0262 30.3488C59.9944 30.3471 59.9639 30.3361 59.9388 30.3174C59.9262 30.3085 59.9161 30.2967 59.9093 30.2832C59.9026 30.2697 59.8994 30.2549 59.9 30.2399V27.2329C59.8994 27.2014 59.912 27.1709 59.9349 27.1481C59.9476 27.1368 59.9626 27.128 59.979 27.1223C59.9953 27.1166 60.0127 27.1141 60.0301 27.1148H60.2243C60.2445 27.1135 60.2647 27.1165 60.2835 27.1235C60.3023 27.1305 60.3193 27.1414 60.3331 27.1554C60.3576 27.1812 60.3768 27.2113 60.3894 27.244L61.2827 29.7418L62.1994 27.2274C62.2107 27.1989 62.2264 27.1721 62.246 27.1481C62.2587 27.1368 62.2737 27.1284 62.2902 27.1233C62.3066 27.1182 62.324 27.1166 62.3412 27.1185H62.5762C62.6067 27.1199 62.6357 27.1317 62.6578 27.1517C62.6708 27.161 62.6814 27.173 62.6888 27.1867C62.6962 27.2005 62.7002 27.2156 62.7005 27.2311V30.2436C62.7014 30.2594 62.6984 30.2752 62.6916 30.2896C62.6848 30.304 62.6746 30.3167 62.6616 30.3266C62.6366 30.345 62.6058 30.3547 62.5742 30.3543C62.542 30.355 62.5105 30.3452 62.4849 30.3266C62.472 30.3167 62.4617 30.304 62.4549 30.2896C62.4482 30.2752 62.4451 30.2594 62.4461 30.2436L62.4422 27.3565Z" fill="black"/>
<path d="M64.0483 27.244C64.0476 27.2258 64.0513 27.2078 64.059 27.1911C64.0667 27.1745 64.0783 27.1598 64.093 27.1481C64.1185 27.1273 64.1507 27.1156 64.1842 27.1149H65.5437C65.5615 27.1135 65.5794 27.1162 65.5959 27.1226C65.6124 27.129 65.6271 27.139 65.6389 27.1518C65.6585 27.1761 65.6687 27.206 65.668 27.2366C65.668 27.2672 65.6563 27.2967 65.635 27.3196C65.6237 27.3319 65.6096 27.3416 65.5938 27.348C65.578 27.3543 65.5609 27.3573 65.5437 27.3565H64.3085V28.5759H65.3029C65.3213 28.5751 65.3396 28.5783 65.3565 28.5853C65.3733 28.5924 65.3882 28.6031 65.4 28.6165C65.4207 28.6398 65.4323 28.6691 65.433 28.6995C65.4326 28.7309 65.4202 28.7611 65.398 28.7844C65.386 28.797 65.3713 28.8069 65.3549 28.8136C65.3385 28.8203 65.3207 28.8236 65.3029 28.8231H64.3085V30.1145H65.5437C65.5606 30.1136 65.5775 30.1165 65.593 30.1229C65.6085 30.1293 65.6222 30.1391 65.633 30.1514C65.6523 30.1744 65.6626 30.2031 65.6622 30.2326C65.6623 30.262 65.6521 30.2906 65.633 30.3137C65.6221 30.3258 65.6083 30.3353 65.5928 30.3414C65.5773 30.3475 65.5604 30.35 65.5437 30.3488H64.1842C64.1521 30.3489 64.1205 30.3406 64.093 30.3248C64.0767 30.3128 64.064 30.2969 64.0562 30.2788C64.0483 30.2607 64.0456 30.2409 64.0483 30.2215V27.244Z" fill="black"/>
<path d="M68.7501 30.24C68.7509 30.2544 68.7483 30.2688 68.7426 30.2821C68.7369 30.2955 68.7282 30.3076 68.7171 30.3174C68.697 30.3355 68.6709 30.3466 68.6433 30.3488C68.6138 30.3503 68.5844 30.3446 68.5579 30.3322C68.5281 30.3187 68.5041 30.2959 68.4899 30.2676L67.144 27.7366V30.24C67.1449 30.2557 67.1419 30.2715 67.1351 30.2859C67.1284 30.3004 67.1181 30.3131 67.1052 30.323C67.0807 30.3409 67.0506 30.3507 67.0197 30.3507C66.9888 30.3507 66.9587 30.3409 66.9343 30.323C66.9215 30.313 66.9116 30.3002 66.9051 30.2857C66.8987 30.2713 66.896 30.2556 66.8974 30.24V27.2274C66.8968 27.2142 66.8991 27.201 66.9041 27.1886C66.9092 27.1762 66.9168 27.1649 66.9265 27.1555C66.9457 27.1342 66.9729 27.121 67.0022 27.1186C67.0265 27.1131 67.0518 27.1131 67.076 27.1186C67.0982 27.1255 67.1168 27.14 67.1285 27.1591L68.5035 29.7419V27.2274C68.5027 27.2114 68.5058 27.1954 68.5125 27.1807C68.5193 27.166 68.5295 27.1529 68.5423 27.1425C68.5679 27.1242 68.5998 27.1157 68.6317 27.1186C68.6633 27.1196 68.6938 27.1299 68.719 27.1481C68.7314 27.1576 68.7414 27.1697 68.7481 27.1835C68.7549 27.1972 68.7582 27.2122 68.7579 27.2274L68.7501 30.24Z" fill="black"/>
<path d="M71.7293 27.1185C71.745 27.1179 71.7606 27.121 71.7749 27.1274C71.7891 27.1339 71.8014 27.1435 71.8108 27.1554C71.8304 27.1798 71.8407 27.2097 71.84 27.2403C71.8408 27.2698 71.832 27.2988 71.8147 27.3233C71.8049 27.3358 71.792 27.3458 71.777 27.3522C71.7621 27.3587 71.7456 27.3614 71.7293 27.3602H70.9874V30.2436C70.9887 30.2593 70.986 30.275 70.9796 30.2894C70.9732 30.3039 70.9632 30.3166 70.9505 30.3266C70.9248 30.345 70.8933 30.3547 70.8612 30.3543C70.8296 30.3547 70.7988 30.345 70.7738 30.3266C70.7608 30.3167 70.7506 30.304 70.7438 30.2896C70.7371 30.2752 70.734 30.2594 70.7349 30.2436V27.3565H69.9581C69.9424 27.3571 69.9267 27.3541 69.9125 27.3476C69.8983 27.3412 69.8859 27.3316 69.8765 27.3196C69.8572 27.2959 69.8469 27.2666 69.8474 27.2366C69.8467 27.206 69.8569 27.1761 69.8765 27.1517C69.8859 27.1398 69.8983 27.1302 69.9125 27.1237C69.9267 27.1173 69.9424 27.1143 69.9581 27.1148L71.7293 27.1185Z" fill="black"/>
<path d="M73.0946 30.9115C73.0898 30.9278 73.0815 30.943 73.0701 30.956C73.0587 30.969 73.0446 30.9796 73.0285 30.9871C72.9971 30.9972 72.9629 30.9972 72.9314 30.9871C72.8987 30.9806 72.8701 30.962 72.8518 30.9354C72.8418 30.9178 72.8356 30.8984 72.8335 30.8785C72.8315 30.8585 72.8338 30.8383 72.8402 30.8192C72.8518 30.7823 72.8635 30.7399 72.8751 30.6938C72.8868 30.6477 72.8984 30.6015 72.9081 30.5573C72.9178 30.513 72.9276 30.4706 72.9353 30.4337C72.9416 30.4076 72.9455 30.381 72.947 30.3543C72.9162 30.3541 72.8859 30.3475 72.8581 30.3351C72.8303 30.3227 72.8056 30.3047 72.7858 30.2824C72.7439 30.2379 72.7216 30.1797 72.7236 30.12C72.7233 30.089 72.7297 30.0583 72.7424 30.0298C72.7551 30.0012 72.7738 29.9754 72.7974 29.954C72.8231 29.9305 72.8536 29.9123 72.887 29.9006C72.9204 29.8888 72.9561 29.8838 72.9916 29.8858C73.0282 29.8825 73.0651 29.8879 73.099 29.9014C73.1329 29.9149 73.1627 29.9361 73.1859 29.9632C73.2281 30.0162 73.25 30.0813 73.248 30.1477C73.248 30.2094 73.2434 30.2711 73.2344 30.3322C73.2247 30.4005 73.2111 30.4687 73.1956 30.537C73.18 30.6052 73.1645 30.6716 73.149 30.7362C73.1334 30.8008 73.1101 30.8635 73.0946 30.9115Z" fill="black"/>
<path d="M76.1981 28.0834C76.1934 27.9226 76.2204 27.7624 76.2777 27.6111C76.3231 27.495 76.3994 27.392 76.4991 27.3122C76.597 27.2344 76.7127 27.1794 76.837 27.1517C76.9801 27.1188 77.1268 27.1027 77.274 27.1038C77.4051 27.1035 77.5357 27.1196 77.6624 27.1517C77.7805 27.1816 77.8927 27.2296 77.9945 27.2938C78.091 27.3565 78.1713 27.4391 78.2295 27.5355C78.2897 27.6399 78.3199 27.7577 78.3169 27.8767C78.3184 27.8935 78.3158 27.9103 78.3094 27.926C78.303 27.9416 78.293 27.9557 78.28 27.9671C78.2544 27.9857 78.2229 27.9955 78.1907 27.9948C78.1591 27.9952 78.1283 27.9855 78.1033 27.9671C78.09 27.9559 78.0795 27.9419 78.0728 27.9262C78.0661 27.9106 78.0632 27.8936 78.0644 27.8767C78.0653 27.7987 78.0431 27.722 78.0003 27.6554C77.9554 27.5889 77.8973 27.5313 77.8294 27.4857C77.754 27.4336 77.6691 27.3955 77.5789 27.3731C77.4803 27.3468 77.3783 27.3338 77.2759 27.3344C77.0471 27.3157 76.8196 27.3818 76.6409 27.5189C76.5702 27.5968 76.5166 27.6874 76.4833 27.7853C76.4499 27.8832 76.4375 27.9864 76.4467 28.0889V29.4393C76.4335 29.5415 76.4466 29.6452 76.4849 29.7416C76.5231 29.838 76.5853 29.9241 76.6661 29.9927C76.8469 30.1028 77.0597 30.1558 77.274 30.144C77.3917 30.1565 77.5109 30.1445 77.6233 30.1088C77.7356 30.0731 77.8385 30.0146 77.9246 29.9374C78.0616 29.7595 78.1271 29.541 78.1091 29.3212V29.0187H77.5109C77.494 29.0202 77.4769 29.0176 77.4613 29.0111C77.4457 29.0047 77.432 28.9946 77.4216 28.9818C77.4023 28.958 77.392 28.9288 77.3925 28.8988C77.392 28.8682 77.4023 28.8384 77.4216 28.8139C77.4324 28.8017 77.4462 28.7921 77.4618 28.786C77.4773 28.7799 77.4942 28.7775 77.5109 28.7789H78.2451C78.2614 28.7784 78.2777 28.7818 78.2923 28.7889C78.3069 28.796 78.3194 28.8065 78.3286 28.8194C78.3462 28.8433 78.3563 28.8715 78.3577 28.9006V29.3212C78.3577 29.6902 78.2722 29.9669 78.1033 30.1311C77.9343 30.2953 77.6585 30.3728 77.274 30.3728C76.9855 30.3953 76.6977 30.3215 76.4603 30.1643C76.2855 30.0241 76.1981 29.7824 76.1981 29.4393V28.0834Z" fill="black"/>
<path d="M79.5986 27.2274C79.5975 27.2115 79.6002 27.1956 79.6066 27.1808C79.613 27.1661 79.6229 27.153 79.6355 27.1425C79.66 27.1246 79.6901 27.1148 79.721 27.1148C79.7519 27.1148 79.782 27.1246 79.8065 27.1425C79.8193 27.1529 79.8295 27.166 79.8362 27.1807C79.843 27.1954 79.8461 27.2114 79.8453 27.2274V29.4282C79.8393 29.5246 79.855 29.621 79.8915 29.7111C79.9281 29.8011 79.9845 29.8827 80.057 29.9503C80.2063 30.0775 80.4023 30.1438 80.6027 30.1348H80.7503C80.8521 30.1389 80.9537 30.1231 81.0489 30.0886C81.1441 30.054 81.2308 30.0013 81.3038 29.9337C81.3734 29.8668 81.4281 29.7872 81.4644 29.6997C81.5008 29.6122 81.5182 29.5186 81.5155 29.4245V27.2274C81.5143 27.2115 81.5171 27.1956 81.5235 27.1808C81.5299 27.1661 81.5398 27.153 81.5524 27.1425C81.5769 27.1247 81.6069 27.115 81.6378 27.1149C81.6688 27.1147 81.6989 27.1245 81.7233 27.1425C81.7362 27.1529 81.7463 27.166 81.7531 27.1807C81.7598 27.1954 81.7629 27.2114 81.7621 27.2274V29.4282C81.7622 29.5545 81.7372 29.6797 81.6883 29.7972C81.642 29.9106 81.5718 30.0137 81.482 30.1003C81.3921 30.1869 81.2846 30.2552 81.1659 30.3008C81.0338 30.3509 80.8926 30.3759 80.7503 30.3746H80.5969C80.4552 30.376 80.3147 30.3509 80.1832 30.3008C80.0639 30.2556 79.9556 30.1878 79.8647 30.1016C79.7786 30.0161 79.7124 29.9142 79.6705 29.8027C79.6228 29.6812 79.5991 29.5524 79.6006 29.4227L79.5986 27.2274Z" fill="black"/>
<path d="M83.3275 30.24C83.3284 30.2557 83.3254 30.2715 83.3186 30.2859C83.3119 30.3003 83.3016 30.313 83.2886 30.323C83.2642 30.3409 83.2341 30.3507 83.2032 30.3507C83.1723 30.3507 83.1422 30.3409 83.1177 30.323C83.1048 30.313 83.0945 30.3003 83.0878 30.2859C83.081 30.2715 83.078 30.2557 83.0789 30.24V27.2329C83.0767 27.2169 83.0783 27.2006 83.0838 27.1854C83.0893 27.1701 83.0983 27.1562 83.1104 27.1448C83.1224 27.1333 83.137 27.1247 83.1531 27.1195C83.1692 27.1143 83.1863 27.1127 83.2032 27.1149H83.9975C84.071 27.1172 84.1444 27.1239 84.217 27.1352C84.3178 27.149 84.4148 27.1816 84.5025 27.2311C84.6026 27.286 84.6873 27.3633 84.7491 27.4562C84.8268 27.5795 84.864 27.7221 84.8559 27.8657V28.5649C84.8559 28.9836 84.6617 29.2382 84.2733 29.3323L84.7141 30.1717C84.7221 30.1885 84.7262 30.2068 84.7262 30.2252C84.7262 30.2436 84.7221 30.2619 84.7141 30.2787C84.7083 30.2927 84.6994 30.3053 84.688 30.3158C84.6766 30.3263 84.663 30.3344 84.6481 30.3396C84.6161 30.3507 84.581 30.3507 84.5491 30.3396C84.5163 30.3201 84.4922 30.2899 84.4811 30.2547L84.0344 29.3747H83.3353L83.3275 30.24ZM84.6093 27.8657C84.608 27.8167 84.6021 27.768 84.5918 27.72C84.5783 27.6592 84.5512 27.6019 84.5122 27.5521C84.4596 27.4928 84.393 27.446 84.318 27.4156C84.215 27.3716 84.1025 27.3514 83.9897 27.3565H83.3197V29.1312H83.9354C84.0167 29.131 84.098 29.1243 84.1781 29.1109C84.2534 29.0985 84.3253 29.0722 84.3898 29.0335C84.4554 28.99 84.5076 28.9308 84.5413 28.8619C84.5858 28.7688 84.6065 28.667 84.6015 28.5649L84.6093 27.8657Z" fill="black"/>
<path d="M86.0969 28.0834C86.0911 27.9225 86.1182 27.7622 86.1765 27.6111C86.2222 27.4956 86.2977 27.3929 86.396 27.3123C86.4943 27.2351 86.6099 27.1802 86.7339 27.1518C86.8776 27.1187 87.025 27.1026 87.1728 27.1038C87.304 27.1032 87.4346 27.1194 87.5612 27.1518C87.6796 27.1809 87.7919 27.2289 87.8933 27.2938C87.9905 27.3563 88.0715 27.4389 88.1303 27.5355C88.1905 27.6399 88.2206 27.7577 88.2177 27.8768C88.2189 27.8936 88.216 27.9106 88.2093 27.9262C88.2026 27.9419 88.1921 27.9559 88.1788 27.9672C88.1538 27.9855 88.123 27.9952 88.0914 27.9948C88.0592 27.9952 88.0278 27.9855 88.0021 27.9672C87.9891 27.9557 87.9791 27.9417 87.9727 27.926C87.9663 27.9103 87.9637 27.8935 87.9652 27.8768C87.9663 27.7984 87.9434 27.7215 87.8992 27.6554C87.8549 27.589 87.7975 27.5313 87.7302 27.4857C87.6545 27.4342 87.5696 27.3961 87.4797 27.3731C87.381 27.3471 87.2791 27.3341 87.1767 27.3344C86.9479 27.3157 86.7203 27.3818 86.5416 27.5189C86.4706 27.5966 86.4168 27.6871 86.3834 27.7851C86.35 27.883 86.3378 27.9864 86.3474 28.0889V29.4393C86.3345 29.5417 86.3479 29.6455 86.3865 29.7419C86.425 29.8383 86.4876 29.9243 86.5688 29.9927C86.7495 30.1031 86.9623 30.156 87.1767 30.144C87.2944 30.1563 87.4135 30.1441 87.5259 30.1085C87.6382 30.0728 87.741 30.0144 87.8273 29.9374C87.9665 29.7602 88.0353 29.542 88.0215 29.3212V29.0187H87.4214C87.4047 29.02 87.388 29.0174 87.3727 29.0109C87.3574 29.0045 87.3441 28.9945 87.334 28.9818C87.3141 28.9582 87.3032 28.929 87.3029 28.8988C87.3032 28.868 87.3141 28.8382 87.334 28.8139C87.3445 28.8018 87.358 28.7924 87.3732 28.7863C87.3884 28.7802 87.4049 28.7776 87.4214 28.7789H88.1575C88.1736 28.7782 88.1897 28.7815 88.204 28.7887C88.2184 28.7958 88.2304 28.8064 88.239 28.8195C88.2567 28.8433 88.2668 28.8715 88.2682 28.9006V29.3212C88.2682 29.6902 88.1846 29.9669 88.0157 30.1311C87.7836 30.3123 87.4856 30.3992 87.1864 30.3728C86.8979 30.3957 86.6099 30.322 86.3727 30.1643C86.1979 30.0241 86.1105 29.7824 86.1105 29.4393L86.0969 28.0834Z" fill="black"/>
<path d="M91.0007 29.4891H89.8024L89.5655 30.2399C89.5552 30.2779 89.5302 30.3108 89.4956 30.3322C89.4821 30.34 89.467 30.3452 89.4513 30.3474C89.4357 30.3496 89.4197 30.3488 89.4043 30.3451C89.3749 30.3381 89.3489 30.3218 89.3305 30.299C89.3206 30.2843 89.3144 30.2677 89.3124 30.2505C89.3103 30.2332 89.3126 30.2157 89.3189 30.1993L90.2316 27.2274C90.241 27.1934 90.2623 27.1635 90.2919 27.1425C90.32 27.1245 90.3531 27.1149 90.387 27.1148C90.4198 27.1147 90.4517 27.1244 90.4783 27.1425C90.5066 27.1643 90.527 27.194 90.5366 27.2274L91.4726 30.1938C91.4798 30.2099 91.4834 30.2271 91.4834 30.2445C91.4834 30.262 91.4798 30.2792 91.4726 30.2953C91.4659 30.3075 91.4565 30.3182 91.4451 30.3268C91.4338 30.3353 91.4207 30.3416 91.4066 30.3451C91.3765 30.3525 91.3444 30.3485 91.3173 30.334C91.2835 30.3139 91.2592 30.2822 91.2493 30.2455L91.0007 29.4891ZM89.8782 29.2493H90.925L90.389 27.5687L89.8782 29.2493Z" fill="black"/>
<path d="M92.5369 28.0409C92.5265 27.9114 92.5431 27.7812 92.5858 27.6577C92.6284 27.5343 92.6963 27.42 92.7855 27.3215C92.8865 27.2347 93.005 27.1684 93.1339 27.1265C93.2628 27.0846 93.3993 27.0681 93.5351 27.078H93.6885C93.824 27.0685 93.9601 27.0852 94.0886 27.127C94.2171 27.1689 94.3354 27.235 94.4362 27.3215C94.5265 27.4195 94.5952 27.5336 94.6386 27.6571C94.6819 27.7806 94.699 27.9111 94.6887 28.0409V29.4301C94.6979 29.5572 94.6783 29.6847 94.6313 29.804C94.5843 29.9233 94.511 30.0317 94.4162 30.1218C94.3215 30.212 94.2075 30.2819 94.082 30.3267C93.9565 30.3716 93.8223 30.3904 93.6885 30.382H93.5351C93.394 30.3832 93.2538 30.3601 93.1214 30.3137C93.0024 30.2727 92.8948 30.2065 92.8068 30.12C92.7205 30.0339 92.6543 29.9314 92.6126 29.8193C92.5649 29.6946 92.5412 29.5628 92.5427 29.4301L92.5369 28.0409ZM93.6885 30.1403C93.7893 30.1461 93.8902 30.1318 93.9848 30.0985C94.0794 30.0651 94.1657 30.0134 94.2381 29.9466C94.3051 29.8772 94.3568 29.7957 94.3902 29.707C94.4235 29.6183 94.4379 29.5241 94.4323 29.4301V28.0409C94.4323 27.5564 94.1831 27.3141 93.6846 27.3141H93.5312C93.4285 27.3076 93.3255 27.3206 93.2282 27.3523C93.1308 27.3839 93.0411 27.4337 92.9641 27.4986C92.8947 27.5717 92.8416 27.6575 92.8082 27.7508C92.7748 27.844 92.7618 27.9427 92.7699 28.0409V29.4301C92.7634 29.5265 92.7784 29.6232 92.8139 29.7138C92.8494 29.8044 92.9045 29.8869 92.9758 29.9558C93.1288 30.0846 93.329 30.1509 93.5332 30.1403H93.6885Z" fill="black"/>
<path d="M97.8349 30.2399C97.8356 30.2544 97.8331 30.2687 97.8274 30.2821C97.8217 30.2955 97.813 30.3075 97.8019 30.3174C97.7825 30.3355 97.7571 30.3466 97.73 30.3488C97.7005 30.3504 97.6711 30.3447 97.6446 30.3322C97.6144 30.3192 97.5902 30.2963 97.5766 30.2676L96.2288 27.7365V30.2399C96.2301 30.2556 96.2274 30.2713 96.221 30.2857C96.2146 30.3002 96.2046 30.3129 96.1919 30.323C96.1673 30.3408 96.1373 30.3505 96.1064 30.3506C96.0755 30.3508 96.0454 30.341 96.021 30.323C96.0081 30.313 95.9978 30.3003 95.991 30.2859C95.9843 30.2715 95.9812 30.2557 95.9822 30.2399V27.2274C95.9816 27.2141 95.9839 27.2009 95.9889 27.1886C95.9939 27.1762 96.0015 27.1649 96.0113 27.1554C96.0289 27.1365 96.053 27.1241 96.0793 27.1204C96.1035 27.1148 96.1288 27.1148 96.1531 27.1204C96.1752 27.1274 96.1938 27.1418 96.2055 27.161L97.5824 29.7437V27.2274C97.5812 27.2113 97.5841 27.1952 97.5909 27.1804C97.5976 27.1656 97.6081 27.1526 97.6213 27.1425C97.6463 27.1245 97.6774 27.1159 97.7087 27.1185C97.7403 27.1196 97.7708 27.1299 97.7961 27.1481C97.8085 27.1576 97.8184 27.1697 97.8251 27.1834C97.8319 27.1972 97.8352 27.2122 97.8349 27.2274V30.2399Z" fill="black"/>
<path d="M11.0117 26.0744C11.3302 26.0172 11.6487 25.9619 11.9672 25.901C12.2857 25.8401 12.6178 25.7645 12.9382 25.6999C13.179 25.6519 13.4179 25.6058 13.6587 25.5615C14.1132 25.4804 14.5696 25.4158 15.0182 25.3217C15.4668 25.2276 15.8844 25.104 16.3213 25.0063C16.7583 24.9085 17.1662 24.8402 17.5876 24.7498C17.976 24.6668 18.3508 24.5746 18.7315 24.486L20.0424 24.1669L21.2601 23.8643L21.9165 23.7094C22.4991 23.5765 23.0818 23.44 23.6644 23.309C23.9518 23.2463 24.247 23.191 24.5267 23.1246L25.1093 23.0046C25.624 22.8903 26.1367 22.7814 26.6494 22.6615C27.265 22.5195 27.8768 22.3571 28.4944 22.2243C28.9624 22.1247 29.4402 22.0675 29.9121 21.9771C30.419 21.8775 30.922 21.7594 31.4289 21.6543C31.6678 21.6044 31.9086 21.5583 32.1514 21.5214C32.4834 21.4735 32.8194 21.4513 33.1496 21.3923C33.437 21.3425 33.7147 21.2502 34.0002 21.1912C34.2508 21.1396 34.5052 21.1027 34.7576 21.0695C35.1461 21.0215 35.5345 20.992 35.9093 20.9366C36.2841 20.8813 36.6861 20.802 37.0746 20.7319L37.1639 20.7208C37.6183 20.6784 38.0747 20.6488 38.5234 20.5916C38.972 20.5345 39.3934 20.4533 39.8265 20.3813H39.8867C40.516 20.3408 41.1432 20.3002 41.7725 20.2559L43.4427 20.136C43.9593 20.0991 44.4759 20.0437 44.9964 20.0308C46.954 19.981 48.9136 19.9497 50.8731 19.9035C51.9957 19.8777 53.1182 19.8168 54.2388 19.8168C55.1516 19.8168 56.0624 19.8777 56.9733 19.9238C57.5093 19.9497 58.0453 19.9939 58.5813 20.0345C59.0377 20.0696 59.4941 20.1065 59.9408 20.1507C60.6904 20.2227 61.4401 20.2983 62.1878 20.3832C62.7704 20.4496 63.353 20.5308 63.9493 20.6101C64.4853 20.682 65.0232 20.7577 65.5573 20.8407C66.2565 20.9495 66.9556 21.0584 67.6528 21.1875C68.1403 21.2779 68.6239 21.4107 69.1075 21.5085C69.591 21.6063 70.0358 21.6635 70.498 21.7576C70.9253 21.8461 71.3467 21.9642 71.772 22.0656C72.1507 22.156 72.5314 22.2391 72.9101 22.3295C73.2499 22.4106 73.5918 22.4863 73.9277 22.5822C74.2637 22.6781 74.59 22.7943 74.924 22.8958C75.4523 23.0581 75.9883 23.1984 76.5107 23.3755C77.1244 23.5858 77.7316 23.8127 78.3324 24.0562C79.3813 24.4862 80.3913 24.9971 81.3524 25.5837C81.5233 25.687 81.834 25.8549 82.0224 25.984C81.902 26.0504 81.634 26.0209 81.4689 26.0633C81.4271 26.0664 81.3852 26.0601 81.3465 26.0449C81.2517 26.0234 81.1547 26.0116 81.0572 26.0098H30.3394C30.2239 26.0201 30.1095 26.0398 29.9976 26.0689C24.3655 26.0689 18.7515 26.0689 13.1557 26.0689C12.441 26.0873 11.7263 26.0781 11.0117 26.0744Z" fill="#85C441"/>
<path d="M6.17199 26.139C6.07489 26.1297 5.97778 26.1205 5.88068 26.1076V26.2921H8.59961C7.76839 26.246 6.97019 26.1962 6.17199 26.139Z" fill="black"/>
<path d="M5.88068 0V14.5573H5.89816C6.00885 14.5462 6.09236 14.5296 6.20889 14.513V0.313616H97.6699V25.9821H11.5225L10.9845 26.0762C10.4446 26.126 9.92994 26.174 9.38033 26.2293L8.74138 26.2958H98V0H5.88068Z" fill="black"/>
</g>
<defs>
<clipPath id="clip0_6_34">
<rect width="98" height="31" fill="white"/>
</clipPath>
</defs>
</svg>
